<?xml version="1.0" standalone="no"?>
<!DOCTYPE svg PUBLIC "-//W3C//DTD SVG 20010904//EN"
 "http://www.w3.org/TR/2001/REC-SVG-20010904/DTD/svg10.dtd">
<svg version="1.0" xmlns="http://www.w3.org/2000/svg"
 width="32.000000pt" height="32.000000pt" viewBox="0 0 32.000000 32.000000"
 preserveAspectRatio="xMidYMid meet">

<g transform="translate(0.000000,32.000000) scale(0.100000,-0.100000)"
fill="#000000" stroke="none">
<path d="M195 291 c-105 -51 -156 -111 -94 -111 24 0 24 -16 -1 -57 -20 -34
-34 -41 -45 -23 -8 13 -55 13 -55 0 0 -6 10 -14 23 -19 13 -5 39 -25 59 -45
47 -47 74 -47 94 -1 7 19 14 49 14 66 0 25 11 42 59 88 63 60 80 93 61 116
-18 22 -48 18 -115 -14z m104 10 c20 -13 0 -46 -64 -106 -45 -43 -53 -57 -60
-100 -8 -55 -20 -85 -35 -85 -5 0 -24 14 -42 30 -30 27 -31 31 -15 41 21 12
47 61 47 89 0 12 -9 24 -22 29 -20 7 -20 9 13 33 40 30 93 58 110 58 6 0 -7
-20 -30 -45 -22 -24 -41 -53 -41 -62 0 -13 5 -9 19 12 10 17 28 39 41 50 12
11 26 30 31 43 9 23 25 28 48 13z"/>
</g>
</svg>
