<?xml version="1.0" standalone="no"?>
<!DOCTYPE svg PUBLIC "-//W3C//DTD SVG 20010904//EN"
 "http://www.w3.org/TR/2001/REC-SVG-20010904/DTD/svg10.dtd">
<svg version="1.0" xmlns="http://www.w3.org/2000/svg"
 width="32.000000pt" height="32.000000pt" viewBox="0 0 32.000000 32.000000"
 preserveAspectRatio="xMidYMid meet">

<g transform="translate(0.000000,32.000000) scale(0.100000,-0.100000)"
fill="#000000" stroke="none">
<path d="M133 290 c-31 -18 -33 -24 -33 -73 0 -52 -1 -54 -24 -50 -37 7 -40
-12 -10 -67 38 -70 58 -85 111 -85 37 0 49 5 69 28 22 25 24 37 24 118 0 82
-2 91 -20 96 -11 3 -20 9 -20 13 0 6 -55 40 -64 40 -1 0 -16 -9 -33 -20z m49
-62 l2 -63 3 58 c3 41 8 57 18 57 11 0 15 -15 17 -57 1 -51 2 -53 5 -15 3 28
8 42 16 39 8 -2 12 -32 12 -89 0 -105 -14 -128 -81 -128 -34 0 -47 5 -66 29
-30 34 -53 89 -43 99 3 4 15 -3 25 -15 9 -12 20 -19 24 -16 3 4 6 37 6 75 0
80 17 92 23 16 l3 -53 2 63 c2 48 5 62 17 62 12 0 15 -14 17 -62z"/>
</g>
</svg>
