<?xml version="1.0" standalone="no"?>
<!DOCTYPE svg PUBLIC "-//W3C//DTD SVG 20010904//EN"
 "http://www.w3.org/TR/2001/REC-SVG-20010904/DTD/svg10.dtd">
<svg version="1.0" xmlns="http://www.w3.org/2000/svg"
 width="32.000000pt" height="32.000000pt" viewBox="0 0 32.000000 32.000000"
 preserveAspectRatio="xMidYMid meet">

<g transform="translate(0.000000,32.000000) scale(0.100000,-0.100000)"
fill="#000000" stroke="none">
<path d="M4 307 c-2 -7 -3 -78 -2 -157 l3 -145 155 0 155 0 3 119 3 119 -38
39 -37 38 -118 0 c-88 0 -120 -3 -124 -13z m66 -52 l0 -55 90 0 90 0 0 47 0
47 30 -29 31 -29 -3 -111 c-3 -95 -5 -110 -20 -113 -16 -3 -18 5 -18 67 l0 71
-110 0 -110 0 0 -71 c0 -62 -2 -70 -17 -67 -16 3 -18 19 -21 138 -1 74 0 140
2 147 3 7 17 13 31 13 24 0 25 -3 25 -55z m168 3 l3 -48 -80 0 -81 0 0 43 c0
24 3 47 7 51 4 4 39 5 78 4 l70 -3 3 -47z m20 -180 l-3 -63 -95 0 -95 0 -3 63
-3 62 101 0 101 0 -3 -62z"/>
<path d="M192 258 c4 -46 28 -49 28 -4 0 26 -4 36 -16 36 -11 0 -14 -8 -12
-32z m15 -10 c-3 -7 -5 -2 -5 12 0 14 2 19 5 13 2 -7 2 -19 0 -25z"/>
</g>
</svg>
