<?xml version="1.0" standalone="no"?>
<!DOCTYPE svg PUBLIC "-//W3C//DTD SVG 20010904//EN"
 "http://www.w3.org/TR/2001/REC-SVG-20010904/DTD/svg10.dtd">
<svg version="1.0" xmlns="http://www.w3.org/2000/svg"
 width="32.000000pt" height="32.000000pt" viewBox="0 0 32.000000 32.000000"
 preserveAspectRatio="xMidYMid meet">

<g transform="translate(0.000000,32.000000) scale(0.100000,-0.100000)"
fill="#000000" stroke="none">
<path d="M112 308 c-14 -14 -16 -98 -3 -98 6 0 11 19 13 43 l3 42 80 0 80 0 0
-135 0 -135 -82 -3 -83 -3 0 41 c0 22 -4 40 -10 40 -14 0 -12 -74 2 -88 16
-16 170 -16 186 0 15 15 17 261 2 289 -9 16 -22 19 -93 19 -51 0 -88 -5 -95
-12z"/>
<path d="M160 225 c0 -5 10 -19 22 -32 l21 -23 -97 0 c-62 0 -95 -4 -91 -10 3
-5 47 -10 97 -10 l91 0 -23 -25 c-37 -39 -13 -43 25 -4 l35 35 -40 39 c-22 21
-40 35 -40 30z"/>
</g>
</svg>
