<?xml version="1.0" standalone="no"?>
<!DOCTYPE svg PUBLIC "-//W3C//DTD SVG 20010904//EN"
 "http://www.w3.org/TR/2001/REC-SVG-20010904/DTD/svg10.dtd">
<svg version="1.0" xmlns="http://www.w3.org/2000/svg"
 width="32.000000pt" height="32.000000pt" viewBox="0 0 32.000000 32.000000"
 preserveAspectRatio="xMidYMid meet">

<g transform="translate(0.000000,32.000000) scale(0.100000,-0.100000)"
fill="#000000" stroke="none">
<path d="M275 294 c-14 -11 -31 -13 -55 -9 -96 17 -135 16 -167 -4 -18 -12
-33 -27 -33 -34 0 -8 18 -63 39 -123 25 -71 44 -110 55 -112 13 -3 14 1 6 23
-5 14 -10 32 -10 40 0 21 49 32 99 22 30 -5 56 -5 74 2 27 10 27 11 27 111 0
55 -3 100 -7 100 -5 0 -17 -8 -28 -16z m-125 -34 c0 -13 -9 -22 -25 -26 -28
-7 -31 -21 -12 -47 8 -11 20 -15 34 -11 18 5 22 11 17 30 -8 30 20 34 36 5 15
-29 12 -41 -9 -41 -14 0 -18 -5 -14 -20 4 -16 0 -20 -20 -20 -17 0 -28 7 -32
20 -5 16 -10 18 -26 10 -16 -9 -21 -7 -30 17 -8 22 -7 30 7 40 10 7 15 20 11
32 -5 21 5 29 41 30 16 1 22 -5 22 -19z m86 -10 c8 0 14 -9 14 -21 0 -29 -40
-22 -51 10 -8 19 -6 22 7 17 8 -3 22 -6 30 -6z m44 -55 c0 -16 -6 -25 -15 -25
-15 0 -21 31 -8 43 13 14 23 6 23 -18z m-20 -55 c0 -13 -7 -20 -20 -20 -13 0
-20 7 -20 20 0 13 7 20 20 20 13 0 20 -7 20 -20z"/>
</g>
</svg>
