<?xml version="1.0" standalone="no"?>
<!DOCTYPE svg PUBLIC "-//W3C//DTD SVG 20010904//EN"
 "http://www.w3.org/TR/2001/REC-SVG-20010904/DTD/svg10.dtd">
<svg version="1.0" xmlns="http://www.w3.org/2000/svg"
 width="32.000000pt" height="32.000000pt" viewBox="0 0 32.000000 32.000000"
 preserveAspectRatio="xMidYMid meet">

<g transform="translate(0.000000,32.000000) scale(0.100000,-0.100000)"
fill="#000000" stroke="none">
<path d="M217 308 l-49 -10 7 -35 c9 -49 23 -83 34 -83 6 0 6 14 -1 36 -11 42
-7 50 21 35 48 -26 67 -111 37 -168 -16 -32 -69 -63 -106 -63 -36 0 -90 31
-105 61 -18 33 -19 92 -4 120 17 32 4 46 -15 17 -23 -35 -23 -108 0 -147 22
-37 82 -71 125 -71 35 0 94 30 116 59 44 56 33 140 -24 196 -31 30 -33 35 -15
35 27 0 52 10 52 21 0 10 -8 10 -73 -3z"/>
</g>
</svg>
