<?xml version="1.0" standalone="no"?>
<!DOCTYPE svg PUBLIC "-//W3C//DTD SVG 20010904//EN"
 "http://www.w3.org/TR/2001/REC-SVG-20010904/DTD/svg10.dtd">
<svg version="1.0" xmlns="http://www.w3.org/2000/svg"
 width="32.000000pt" height="32.000000pt" viewBox="0 0 32.000000 32.000000"
 preserveAspectRatio="xMidYMid meet">

<g transform="translate(0.000000,32.000000) scale(0.100000,-0.100000)"
fill="#000000" stroke="none">
<path d="M136 288 c-9 -12 -16 -37 -16 -55 0 -32 -1 -33 -45 -33 -35 0 -47 -4
-56 -22 -10 -18 -8 -24 11 -40 12 -10 37 -18 56 -18 32 0 34 -2 34 -34 0 -19
8 -44 18 -56 16 -19 22 -21 40 -11 18 9 22 21 22 56 0 44 0 45 34 45 19 0 44
8 56 18 19 16 21 22 11 40 -9 18 -21 22 -56 22 l-45 0 0 45 c0 34 -5 47 -19
55 -26 14 -28 13 -45 -12z m44 -54 l5 -49 50 -5 c36 -4 50 -9 50 -20 0 -11
-14 -16 -52 -18 l-52 -3 -3 -52 c-2 -38 -7 -52 -18 -52 -11 0 -16 14 -18 52
l-3 52 -52 3 c-38 2 -52 7 -52 18 0 11 14 16 53 18 l52 3 0 48 c0 26 3 51 7
55 16 15 28 -4 33 -50z"/>
</g>
</svg>
