<?xml version="1.0" standalone="no"?>
<!DOCTYPE svg PUBLIC "-//W3C//DTD SVG 20010904//EN"
 "http://www.w3.org/TR/2001/REC-SVG-20010904/DTD/svg10.dtd">
<svg version="1.0" xmlns="http://www.w3.org/2000/svg"
 width="32.000000pt" height="32.000000pt" viewBox="0 0 32.000000 32.000000"
 preserveAspectRatio="xMidYMid meet">

<g transform="translate(0.000000,32.000000) scale(0.100000,-0.100000)"
fill="#000000" stroke="none">
<path d="M120 270 c-16 -32 -26 -40 -57 -45 -76 -13 -81 -26 -32 -76 28 -29
30 -35 24 -80 -8 -60 7 -70 66 -44 37 17 41 17 78 0 58 -26 74 -16 65 41 -6
42 -4 48 27 80 27 28 31 38 23 52 -6 9 -20 18 -30 20 -55 8 -65 15 -84 52 -27
53 -53 53 -80 0z m69 -19 c18 -34 26 -39 66 -45 25 -4 45 -11 45 -15 0 -4 -14
-20 -31 -37 -28 -27 -30 -33 -25 -76 7 -54 4 -56 -49 -31 -33 16 -37 16 -70 0
-54 -26 -59 -23 -51 30 6 43 4 49 -26 80 -17 18 -29 35 -26 39 4 3 25 8 48 11
35 5 44 11 61 44 11 22 24 39 29 39 5 0 19 -17 29 -39z"/>
</g>
</svg>
