<?xml version="1.0" standalone="no"?>
<!DOCTYPE svg PUBLIC "-//W3C//DTD SVG 20010904//EN"
 "http://www.w3.org/TR/2001/REC-SVG-20010904/DTD/svg10.dtd">
<svg version="1.0" xmlns="http://www.w3.org/2000/svg"
 width="32.000000pt" height="32.000000pt" viewBox="0 0 32.000000 32.000000"
 preserveAspectRatio="xMidYMid meet">

<g transform="translate(0.000000,32.000000) scale(0.100000,-0.100000)"
fill="#000000" stroke="none">
<path d="M40 260 c0 -16 5 -30 10 -30 6 0 10 9 10 20 0 13 7 20 20 20 11 0 20
5 20 10 0 6 -13 10 -30 10 -27 0 -30 -3 -30 -30z"/>
<path d="M85 239 c-64 -46 -88 -69 -70 -69 4 0 36 20 71 45 34 25 68 45 74 45
6 0 40 -20 74 -45 65 -46 76 -51 76 -37 0 7 -143 113 -152 112 -2 -1 -34 -23
-73 -51z"/>
<path d="M40 112 c0 -67 11 -82 57 -82 32 0 33 1 33 40 0 38 2 40 30 40 28 0
30 -2 30 -40 0 -39 1 -40 33 -40 18 0 38 5 45 12 14 14 16 128 2 128 -6 0 -10
-27 -10 -60 0 -57 -1 -60 -25 -60 -22 0 -25 4 -25 40 l0 40 -50 0 -50 0 0 -40
c0 -36 -2 -40 -25 -40 -24 0 -25 3 -25 60 0 33 -4 60 -10 60 -6 0 -10 -26 -10
-58z"/>
</g>
</svg>
