<?xml version="1.0" standalone="no"?>
<!DOCTYPE svg PUBLIC "-//W3C//DTD SVG 20010904//EN"
 "http://www.w3.org/TR/2001/REC-SVG-20010904/DTD/svg10.dtd">
<svg version="1.0" xmlns="http://www.w3.org/2000/svg"
 width="32.000000pt" height="32.000000pt" viewBox="0 0 32.000000 32.000000"
 preserveAspectRatio="xMidYMid meet">

<g transform="translate(0.000000,32.000000) scale(0.100000,-0.100000)"
fill="#000000" stroke="none">
<path d="M117 262 c-53 -58 28 -137 83 -82 25 25 25 55 0 80 -25 25 -62 26
-83 2z m77 -24 c16 -26 -4 -53 -40 -53 -23 0 -30 5 -32 23 -2 13 -1 30 2 38 8
20 56 14 70 -8z"/>
<path d="M110 143 c-33 -13 -50 -37 -50 -70 0 -20 4 -32 10 -28 5 3 10 19 10
34 0 31 31 51 80 51 49 0 78 -19 88 -59 l10 -36 1 36 c1 48 -25 71 -86 75 -27
2 -55 1 -63 -3z"/>
</g>
</svg>
